<svg width="236" height="201" viewBox="0 0 236 201" fill="none" xmlns="http://www.w3.org/2000/svg">
<path d="M134.917 0.25H17.0833C7.825 0.25 0.25 7.825 0.25 17.0833V134.917C0.25 144.175 7.825 151.75 17.0833 151.75H134.917C144.175 151.75 151.75 144.175 151.75 134.917V17.0833C151.75 7.825 144.175 0.25 134.917 0.25ZM33.9167 33.9167H50.75V50.75H33.9167V33.9167ZM33.9167 67.5833H50.75V84.4167H33.9167V67.5833ZM33.9167 101.25H50.75V118.083H33.9167V101.25ZM118.083 118.083H67.5833V101.25H118.083V118.083ZM118.083 84.4167H67.5833V67.5833H118.083V84.4167ZM118.083 50.75H67.5833V33.9167H118.083V50.75Z" fill="#323232"/>
<path d="M159.25 80.4999C147.647 80.4999 136.519 85.1093 128.314 93.314C120.109 101.519 115.5 112.647 115.5 124.25C115.5 135.853 120.109 146.981 128.314 155.186C136.519 163.391 147.647 168 159.25 168C170.853 168 181.981 163.391 190.186 155.186C198.391 146.981 203 135.853 203 124.25C203 112.647 198.391 101.519 190.186 93.314C181.981 85.1093 170.853 80.4999 159.25 80.4999ZM98 124.25C98 114.548 100.305 104.986 104.724 96.3492C109.143 87.7128 115.551 80.2495 123.419 74.5742C131.287 68.8988 140.391 65.1737 149.981 63.7055C159.57 62.2373 169.372 63.068 178.577 66.1293C187.783 69.1906 196.13 74.3949 202.931 81.3136C209.732 88.2323 214.792 96.6675 217.694 105.925C220.597 115.182 221.259 124.996 219.626 134.559C217.993 144.122 214.112 153.16 208.303 160.93L235.436 188.055L223.064 200.436L195.939 173.311C186.835 180.122 176.014 184.264 164.69 185.273C153.365 186.283 141.983 184.121 131.817 179.028C121.652 173.936 113.104 166.115 107.132 156.44C101.159 146.766 97.9971 135.62 98 124.25Z" fill="#B9B9B9"/>
</svg>
