<svg width="164" height="164" viewBox="0 0 164 164" fill="none" xmlns="http://www.w3.org/2000/svg">
<path d="M11.3887 38.7222H152.611V125.278H11.3887V38.7222Z" fill="#1E50A0"/>
<path d="M123.531 88.708L125.642 81.8747L127.754 88.708L122.225 84.4828L129.059 84.485L123.531 88.708ZM46.6944 107.053L43.1456 110.418L43.4987 105.475L38.7222 104.728L42.7083 101.926L40.3007 97.6301L44.92 99.081L46.6944 94.4731L48.4688 99.081L53.0881 97.6301L50.6805 101.926L54.6666 104.728L49.8901 105.475L50.2432 110.418L46.6944 107.053ZM101.361 80.6812L98.8259 83.0842L99.0787 79.5536L95.6666 79.0184L98.5138 77.0185L96.7941 73.9503L100.095 74.9867L101.361 71.6953L102.627 74.9867L105.928 73.9503L104.208 77.0185L107.055 79.0184L103.643 79.5536L103.896 83.0842L101.361 80.6812ZM135.528 73.8478L132.993 76.2509L133.245 72.7203L129.833 72.185L132.68 70.1851L130.961 67.117L134.261 68.1534L135.528 64.862L136.794 68.1534L140.095 67.117L138.375 70.1851L141.222 72.185L137.81 72.7203L138.063 76.2509L135.528 73.8478ZM117.305 60.1811L114.77 62.5842L115.023 59.0536L111.611 58.5184L114.458 56.5185L112.739 53.4503L116.039 54.4867L117.305 51.1953L118.572 54.4867L121.872 53.4503L120.153 56.5185L123 58.5184L119.588 59.0536L119.841 62.5842L117.305 60.1811ZM117.305 108.014L114.77 110.418L115.023 106.887L111.611 106.352L114.458 104.352L112.739 101.284L116.039 102.32L117.305 99.0287L118.572 102.32L121.872 101.284L120.153 104.352L123 106.352L119.588 106.887L119.841 110.418L117.305 108.014Z" fill="white" stroke="white" stroke-width="0.25" stroke-linecap="round" stroke-linejoin="round"/>
<path d="M22.5202 41H13.6665V46.3118L73.1461 82H81.9998V76.6882L22.5202 41Z" fill="white"/>
<path d="M81.9998 46.3118V41H73.1461L13.6665 76.6882V82H22.5202L81.9998 46.3118Z" fill="white"/>
<path d="M13.6665 54.6667H81.9998V68.3334H13.6665V54.6667Z" fill="white"/>
<path d="M41 41H54.6667V82H41V41Z" fill="white"/>
<path d="M45.5557 41H50.1112V82H45.5557V41Z" fill="#D22F27"/>
<path d="M13.6665 59.2222H81.9998V63.7778H13.6665V59.2222ZM81.9998 76.6882L68.0758 68.3333H59.2221L81.9998 82V76.6882ZM81.9998 41H73.1461L54.6665 52.0882V54.6667H59.2221L81.9998 41ZM13.6665 46.3118L27.5906 54.6667H36.4443L13.6665 41V46.3118ZM13.6665 82H22.5202L40.9998 70.9118V68.3333H36.4443L13.6665 82Z" fill="#D22F27"/>
<path d="M11.3887 38.7222H152.611V125.278H11.3887V38.7222Z" stroke="black" stroke-width="0.5" stroke-linecap="round" stroke-linejoin="round"/>
</svg>
