<svg width="300" height="176" viewBox="0 0 300 176" fill="none" xmlns="http://www.w3.org/2000/svg">
<path d="M4 98H160V176H4V98Z" fill="#67A588"/>
<path d="M17 107H146V167H17V107Z" fill="#A0BEB0"/>
<path d="M155 107C155 111.971 150.971 116 146 116C141.029 116 137 111.971 137 107C137 102.029 141.029 98 146 98C150.971 98 155 102.029 155 107Z" fill="#67A588"/>
<path d="M26 107C26 111.971 21.9706 116 17 116C12.0294 116 8 111.971 8 107C8 102.029 12.0294 98 17 98C21.9706 98 26 102.029 26 107Z" fill="#67A588"/>
<path d="M26 167C26 171.971 21.9706 176 17 176C12.0294 176 8 171.971 8 167C8 162.029 12.0294 158 17 158C21.9706 158 26 162.029 26 167Z" fill="#67A588"/>
<path d="M155 167C155 171.971 150.971 176 146 176C141.029 176 137 171.971 137 167C137 162.029 141.029 158 146 158C150.971 158 155 162.029 155 167Z" fill="#67A588"/>
<path d="M144 0H300V78H144V0Z" fill="#67A588"/>
<path d="M157 9H286V69H157V9Z" fill="#A0BEB0"/>
<path d="M295 9C295 13.9706 290.971 18 286 18C281.029 18 277 13.9706 277 9C277 4.02944 281.029 0 286 0C290.971 0 295 4.02944 295 9Z" fill="#67A588"/>
<path d="M166 9C166 13.9706 161.971 18 157 18C152.029 18 148 13.9706 148 9C148 4.02944 152.029 0 157 0C161.971 0 166 4.02944 166 9Z" fill="#67A588"/>
<path d="M166 69C166 73.9706 161.971 78 157 78C152.029 78 148 73.9706 148 69C148 64.0294 152.029 60 157 60C161.971 60 166 64.0294 166 69Z" fill="#67A588"/>
<path d="M295 69C295 73.9706 290.971 78 286 78C281.029 78 277 73.9706 277 69C277 64.0294 281.029 60 286 60C290.971 60 295 64.0294 295 69Z" fill="#67A588"/>
<path d="M211.727 14H239L236.273 19.5556H227.382C228.691 21.1667 229.673 23.0556 230.245 25.1111H239L236.273 30.6667H230.818C230.479 34.1295 229.002 37.3743 226.626 39.875C224.25 42.3758 221.114 43.9859 217.727 44.4444V44.5556H215.818L232.182 64H225.364L209 44.5556V39H215.818C220.618 39 224.6 35.3889 225.255 30.6667H209L211.727 25.1111H224.436C222.909 21.8333 219.636 19.5556 215.818 19.5556H209L211.727 14Z" fill="#386B53"/>
<path d="M91.3309 127.896H96.2476C96.2476 120.922 89.4748 117.741 83.9559 117.008V111.917H79.0392V117.008C73.5203 117.741 66.7476 120.922 66.7476 127.896C66.7476 134.548 73.3015 138.007 79.0392 138.786V151.004C75.4796 150.387 71.6642 148.487 71.6642 145.104H66.7476C66.7476 151.469 72.709 155.23 79.0392 156.009V161.083H83.9559V155.995C89.4748 155.262 96.2476 152.079 96.2476 145.104C96.2476 138.13 89.4748 134.949 83.9559 134.216V121.996C87.2255 122.583 91.3309 124.309 91.3309 127.896ZM71.6642 127.896C71.6642 124.309 75.7696 122.583 79.0392 121.996V133.793C75.6688 133.171 71.6642 131.33 71.6642 127.896ZM91.3309 145.104C91.3309 148.691 87.2255 150.417 83.9559 151.004V139.204C87.2255 139.792 91.3309 141.518 91.3309 145.104Z" fill="#386B53"/>
<path d="M28 24H127V50H28V24Z" fill="#CFCFCF"/>
<path d="M0 37L30.75 13.6173L30.75 60.3827L0 37Z" fill="#CFCFCF"/>
<path d="M272 150.383L173 150.383L173 124.383L272 124.383L272 150.383Z" fill="#CFCFCF"/>
<path d="M300 137.383L269.25 160.765L269.25 114L300 137.383Z" fill="#CFCFCF"/>
</svg>
