<svg width="34" height="34" viewBox="0 0 34 34" fill="none" xmlns="http://www.w3.org/2000/svg">
<path d="M16.9998 12.75C15.8727 12.75 14.7917 13.1978 13.9946 13.9948C13.1976 14.7918 12.7498 15.8728 12.7498 17C12.7498 18.1272 13.1976 19.2082 13.9946 20.0052C14.7917 20.8022 15.8727 21.25 16.9998 21.25C18.127 21.25 19.208 20.8022 20.005 20.0052C20.8021 19.2082 21.2498 18.1272 21.2498 17C21.2498 15.8728 20.8021 14.7918 20.005 13.9948C19.208 13.1978 18.127 12.75 16.9998 12.75ZM16.9998 24.0833C15.1212 24.0833 13.3195 23.3371 11.9912 22.0087C10.6628 20.6803 9.9165 18.8786 9.9165 17C9.9165 15.1214 10.6628 13.3197 11.9912 11.9913C13.3195 10.6629 15.1212 9.91667 16.9998 9.91667C18.8785 9.91667 20.6801 10.6629 22.0085 11.9913C23.3369 13.3197 24.0832 15.1214 24.0832 17C24.0832 18.8786 23.3369 20.6803 22.0085 22.0087C20.6801 23.3371 18.8785 24.0833 16.9998 24.0833ZM16.9998 6.375C9.9165 6.375 3.86734 10.7808 1.4165 17C3.86734 23.2192 9.9165 27.625 16.9998 27.625C24.0832 27.625 30.1323 23.2192 32.5832 17C30.1323 10.7808 24.0832 6.375 16.9998 6.375Z" fill="#676767"/>
</svg>
