<svg width="44" height="44" viewBox="0 0 44 44" fill="none" xmlns="http://www.w3.org/2000/svg">
<g clip-path="url(#clip0_28_39)">
<path fill-rule="evenodd" clip-rule="evenodd" d="M23.9432 29.4432C23.4275 29.9582 22.7286 30.2475 21.9998 30.2475C21.2711 30.2475 20.5721 29.9582 20.0565 29.4432L9.68348 19.0739C9.16784 18.558 8.87825 17.8584 8.87842 17.129C8.87859 16.3996 9.16851 15.7001 9.6844 15.1845C10.2003 14.6688 10.8999 14.3792 11.6293 14.3794C12.3587 14.3796 13.0582 14.6695 13.5738 15.1854L21.9998 23.6114L30.4258 15.1854C30.9442 14.6842 31.6388 14.4067 32.3598 14.4126C33.0809 14.4185 33.7707 14.7074 34.2808 15.217C34.791 15.7267 35.0805 16.4163 35.0871 17.1373C35.0937 17.8584 34.8168 18.5532 34.3162 19.072L23.945 29.445L23.9432 29.4432Z" fill="black"/>
</g>
<defs>
<clipPath id="clip0_28_39">
<rect width="44" height="44" fill="white"/>
</clipPath>
</defs>
</svg>
