<svg width="19" height="32" viewBox="0 0 19 32" fill="none" xmlns="http://www.w3.org/2000/svg">
<path fill-rule="evenodd" clip-rule="evenodd" d="M17.7968 13.7033C18.4055 14.3127 18.7473 15.1387 18.7473 16C18.7473 16.8612 18.4055 17.6873 17.7968 18.2966L5.54217 30.5556C4.93248 31.165 4.10568 31.5073 3.24365 31.5071C2.38162 31.5069 1.55498 31.1642 0.945583 30.5546C0.336182 29.9449 -0.00606255 29.1181 -0.00585943 28.256C-0.0056563 27.394 0.336978 26.5674 0.946666 25.958L10.9047 16L0.946665 6.04197C0.354356 5.42929 0.0263822 4.60849 0.0333826 3.75634C0.0403829 2.9042 0.381797 2.08889 0.984092 1.48603C1.58639 0.883165 2.40137 0.540981 3.25351 0.533176C4.10565 0.525373 4.92676 0.852573 5.54 1.44431L17.799 13.7011L17.7968 13.7033Z" fill="#F0F0F0"/>
</svg>
