<svg width="63" height="63" viewBox="0 0 63 63" fill="none" xmlns="http://www.w3.org/2000/svg">
<path d="M21.2547 42.5525C21.9485 43.0425 22.7775 43.3045 23.6269 43.3024C24.4763 43.3003 25.304 43.0341 25.9954 42.5407C26.6963 42.0288 27.2279 41.3201 27.5192 40.5011L29.2793 35.0949C29.7321 33.7404 30.492 32.508 31.5 31.496C32.5106 30.487 33.741 29.7256 35.095 29.2713L40.572 27.4955C41.1695 27.2804 41.7095 26.9305 42.1499 26.473C42.5903 26.0155 42.9195 25.4627 43.1117 24.8574C43.2759 24.3407 43.3358 23.7965 43.288 23.2565C43.2402 22.7164 43.0856 22.1912 42.8332 21.7114C42.5808 21.2316 42.2357 20.8066 41.8178 20.4612C41.3999 20.1158 40.9176 19.8568 40.3988 19.6993L34.9847 17.9392C33.6289 17.4881 32.3967 16.7278 31.3853 15.7185C30.3739 14.7091 29.6111 13.4784 29.1572 12.1235L27.3775 6.65829C27.1452 6.00705 26.7523 5.42501 26.2351 4.96611C25.7179 4.50721 25.0932 4.18631 24.419 4.03316C23.7448 3.88001 23.0428 3.89958 22.3781 4.09003C21.7134 4.28049 21.1076 4.63567 20.6168 5.12266C20.1614 5.57169 19.8163 6.12026 19.6088 6.72522L17.8094 12.2377C17.3623 13.5584 16.6189 14.7592 15.6361 15.7481C14.6533 16.7371 13.4572 17.4879 12.1394 17.9432L6.66229 19.7072C6.06701 19.9254 5.52927 20.2764 5.0899 20.7335C4.65052 21.1906 4.32107 21.7418 4.12654 22.3453C3.93736 22.9509 3.8901 23.5919 3.98842 24.2187C4.08674 24.8455 4.32801 25.4413 4.69354 25.9599C5.19754 26.6687 5.91023 27.2002 6.72923 27.4798L12.1394 29.232C13.502 29.6842 14.7395 30.4499 15.7523 31.4675C16.7652 32.4851 17.525 33.7262 17.9708 35.091L19.7505 40.568C20.034 41.3713 20.5617 42.0643 21.2547 42.5525ZM45.4191 58.4679C45.951 58.8471 46.5877 59.0516 47.2409 59.053C47.8942 59.0544 48.5317 58.8527 49.0652 58.4758C49.6171 58.0905 50.0311 57.5385 50.2465 56.9008L51.223 53.9004C51.4294 53.2761 51.7791 52.7088 52.244 52.2439C52.7089 51.779 53.2762 51.4293 53.9005 51.2229L56.9402 50.2307C57.4886 50.0465 57.9747 49.7132 58.3441 49.268C58.7134 48.8229 58.9513 48.2836 59.031 47.7107C59.1443 46.9669 58.9863 46.2072 58.5858 45.5703C58.1853 44.9334 57.5691 44.4619 56.8497 44.2417L53.8414 43.2613C53.2195 43.0529 52.6541 42.7035 52.1896 42.2404C51.7252 41.7773 51.3741 41.213 51.1639 40.5917L50.1717 37.548C49.9563 36.9285 49.553 36.3916 49.018 36.0123C48.4127 35.5764 47.6718 35.3706 46.9285 35.432C46.1851 35.4933 45.488 35.8178 44.9624 36.347C44.6129 36.6947 44.3499 37.1195 44.1945 37.5873L43.222 40.5877C43.021 41.205 42.6801 41.7674 42.2259 42.2312C41.7717 42.6949 41.2165 43.0475 40.6035 43.2613L37.5599 44.2535C36.9337 44.466 36.3902 44.87 36.0064 45.4086C35.6227 45.9471 35.4182 46.5927 35.4218 47.2539C35.4253 47.915 35.6367 48.5582 36.0261 49.0925C36.4155 49.6267 36.9631 50.0249 37.5914 50.2307L40.5957 51.2032C41.2217 51.4158 41.7927 51.7663 42.2573 52.2309C42.7259 52.6995 43.0724 53.2665 43.2732 53.8925L44.2694 56.9402C44.4851 57.5562 44.8868 58.0901 45.4191 58.4679Z" fill="#CFCFCF" fill-opacity="0.811765"/>
</svg>
